<?xml version="1.0" encoding="UTF-8" standalone="no"?>
<svg
   xmlns:dc="http://purl.org/dc/elements/1.1/"
   xmlns:cc="http://creativecommons.org/ns#"
   xmlns:rdf="http://www.w3.org/1999/02/22-rdf-syntax-ns#"
   xmlns:svg="http://www.w3.org/2000/svg"
   xmlns="http://www.w3.org/2000/svg"
   xmlns:sodipodi="http://sodipodi.sourceforge.net/DTD/sodipodi-0.dtd"
   xmlns:inkscape="http://www.inkscape.org/namespaces/inkscape"
   version="1.1"
   id="svg833"
   width="4096"
   height="4096"
   viewBox="0 0 4096.0001 4096.0001"
   sodipodi:docname="EyesFigures.svg"
   inkscape:version="1.0.2-2 (e86c870879, 2021-01-15)">
  <metadata
     id="metadata839">
    <rdf:RDF>
      <cc:Work
         rdf:about="">
        <dc:format>image/svg+xml</dc:format>
        <dc:type
           rdf:resource="http://purl.org/dc/dcmitype/StillImage" />
        <dc:title />
      </cc:Work>
    </rdf:RDF>
  </metadata>
  <defs
     id="defs837" />
  <sodipodi:namedview
     pagecolor="#bbd1ff"
     bordercolor="#666666"
     borderopacity="1"
     objecttolerance="10"
     gridtolerance="10"
     guidetolerance="10"
     inkscape:pageopacity="0"
     inkscape:pageshadow="2"
     inkscape:window-width="2560"
     inkscape:window-height="1377"
     id="namedview835"
     showgrid="false"
     inkscape:zoom="0.20519218"
     inkscape:cx="1817.696"
     inkscape:cy="2100.325"
     inkscape:window-x="-8"
     inkscape:window-y="-8"
     inkscape:window-maximized="1"
     inkscape:current-layer="g841"
     inkscape:document-rotation="0"
     inkscape:pagecheckerboard="true" />
  <g
     inkscape:groupmode="layer"
     inkscape:label="Image"
     id="g841"
     transform="translate(-55.137131,-68.921402)">
    <rect
       style="fill:#000000;stroke-width:0.294792"
       id="rect23"
       width="4096"
       height="4096"
       x="55.137131"
       y="68.921402"
       inkscape:export-xdpi="96"
       inkscape:export-ydpi="96" />
    <path
       style="fill:#ffffff;stroke-width:0.294792"
       d="m 2156.0559,3603.1627 c -12.9264,0.1144 -25.5959,5.3988 -35.4222,15.2251 -21.0499,21.0499 -20.4791,56.2925 1.2487,77.1158 8.7333,8.3697 19.7156,13.0749 33.2546,14.2484 0.825,0.072 4.6245,-0.3216 8.4436,-0.8734 19.5036,-2.8188 36.8774,-18.7346 42.0251,-38.4987 1.9456,-7.4691 1.9649,-20.3718 0.042,-27.7546 -4.4599,-17.1221 -17.2712,-31.2887 -33.2757,-36.795 -5.3548,-1.8422 -10.8582,-2.7156 -16.316,-2.6676 z"
       id="path62"
       inkscape:export-xdpi="96"
       inkscape:export-ydpi="96" />
    <path
       style="fill:#ffffff;stroke-width:0.294792"
       d="m 3292.4029,3528.4215 -0.6276,9.5003 c -0.3455,5.2249 -0.686,20.7498 -0.757,34.4997 -0.071,13.7503 -0.4112,28.0899 -0.7556,31.8664 l -0.6258,6.8666 -7.9995,2.3657 c -4.4,1.3009 -8.9003,2.6113 -10.0005,2.9117 -1.6496,0.4507 -6.6151,-5.0625 -28.3542,-31.4823 -14.4946,-17.6156 -26.6447,-32.02 -27,-32.0102 -0.5232,0.015 -21.4417,17.0689 -24.483,19.9606 -0.4605,0.4377 10.799,14.9093 25.021,32.1588 l 25.8573,31.3626 -5.3165,7.0002 c -6.1667,8.119 -11.0977,17.882 -14.3952,28.5001 -2.0427,6.5777 -2.3231,9.4679 -2.2771,23.4999 0.049,14.7237 0.2745,16.6781 2.8374,24.5001 10.14,30.9476 34.289,52.3476 66.1103,58.5852 8.7527,1.7157 26.5357,1.1384 35.5,-1.152 7.8116,-1.9961 21.0313,-7.9872 27.673,-12.5408 15.2988,-10.4893 26.9996,-26.4771 32.8548,-44.8924 3.2468,-10.2118 4.4434,-28.6042 2.5629,-39.403 -1.8118,-10.4038 -6.8899,-23.1692 -12.6247,-31.737 l -5.2229,-7.8037 26.8783,-32.593 c 14.7832,-17.9261 26.8785,-32.7741 26.8785,-32.9955 0,-0.7081 -24.1817,-20.4683 -25.0484,-20.4683 -0.6386,0 -26.5434,30.9508 -52.9632,63.28 -1.4613,1.7885 -1.6912,1.7661 -6.9671,-0.6783 -3.0007,-1.3905 -7.6799,-3.0982 -10.398,-3.7949 l -4.9418,-1.2661 0.6559,-41.7233 0.6565,-41.7239 -16.3639,-0.2966 z"
       id="path60"
       inkscape:export-xdpi="96"
       inkscape:export-ydpi="96" />
    <path
       style="fill:#ffffff;stroke-width:0.294792"
       d="m 830.85728,3479.9215 0.58554,13.7503 c 0.32221,7.5626 1.31601,17.1247 2.20864,21.2498 4.27064,19.7389 13.62807,41.0332 25.17359,57.2859 7.44762,10.4837 23.5423,26.5784 34.02597,34.0257 29.41491,20.8955 66.15288,31.0339 100.3835,27.7025 36.58988,-3.561 66.46688,-17.6129 92.48108,-43.4962 26.5274,-26.3942 41.081,-58.2532 43.9753,-96.2678 l 0.7041,-9.2503 -72.3794,-0.01 c -56.7802,-0.01 -88.00358,-0.5439 -144.87863,-2.4913 -39.875,-1.3651 -74.70033,-2.4856 -77.38972,-2.4907 z"
       id="path58"
       inkscape:export-xdpi="96"
       inkscape:export-ydpi="96" />
    <path
       style="fill:#ffffff;stroke-width:0.294792"
       d="m 2048.1368,3465.9212 v 38.8336 c 0,21.3582 0.3,39.1335 0.6668,39.5002 0.3666,0.3668 47.3916,0.6663 104.5001,0.6663 h 103.8334 v -39.4997 -39.5004 H 2152.637 Z"
       id="path56"
       inkscape:export-xdpi="96"
       inkscape:export-ydpi="96" />
    <path
       style="fill:#ffffff;stroke-width:0.294792"
       d="m 3397.5596,3112.3796 c -0.1572,0.034 -0.2647,0.5964 -0.2647,1.5418 0,1.3749 0.2267,1.9374 0.504,1.2499 0.2774,-0.6875 0.2774,-1.8124 0,-2.4998 -0.087,-0.2149 -0.168,-0.3077 -0.2393,-0.2919 z"
       id="path54"
       inkscape:export-xdpi="96"
       inkscape:export-ydpi="96" />
    <path
       style="fill:#ffffff;stroke-width:0.294792"
       d="m 2163.5541,2780.071 c -16.4188,0.233 -32.4342,10.4389 -37.822,28.7819 -8.9278,30.3961 20.5791,58.8766 50.7403,48.9752 11.3045,-3.7109 21.1221,-13.1188 25.2209,-24.1678 1.3616,-3.6698 1.9438,-7.7847 1.9438,-13.7388 0,-9.9961 -2.0722,-16.5766 -7.4677,-23.7152 -8.4382,-11.1646 -20.6341,-16.3053 -32.6153,-16.1353 z"
       id="path52"
       inkscape:export-xdpi="96"
       inkscape:export-ydpi="96" />
    <path
       style="fill:#ffffff;stroke-width:0.294792"
       d="m 978.11262,2714.9945 c -4.9171,0 -9.84899,0.4736 -15.23071,1.4119 -72.12844,12.5782 -109.89904,100.5334 -73.42329,170.9786 14.83303,28.6466 40.60399,48.7353 70.67805,55.0944 8.65774,1.8306 32.29641,1.2572 40.50043,-0.9823 17.1628,-4.6851 30.7184,-12.2338 43.4116,-24.1746 10.9789,-10.3282 17.1076,-18.6986 24.0889,-32.901 9.7452,-19.824 13.7835,-39.3292 12.6293,-60.9999 -2.9284,-54.9941 -38.451,-98.4406 -87.51109,-107.0325 -5.32379,-0.9324 -10.22609,-1.3973 -15.14319,-1.3946 z"
       id="path50"
       inkscape:export-xdpi="96"
       inkscape:export-ydpi="96" />
    <path
       style="fill:#ffffff;stroke-width:0.294792"
       d="m 1123.4657,1716.3751 c -0.027,0 -0.057,0.015 -0.086,0.046 -0.5371,0.5501 -3.3173,6.1749 -6.1791,12.4999 -11.1163,24.5704 -28.4811,56.195 -42.6222,77.6229 -28.7808,43.6112 -56.6371,68.2126 -85.50336,75.5122 -11.59063,2.9311 -27.82194,2.2699 -39.43762,-1.6058 -35.74084,-11.9258 -72.82743,-51.545 -110.48412,-118.0295 -4.04955,-7.1501 -8.1983,-14.35 -9.21858,-15.9999 l -1.85569,-2.9998 0.65465,2.9998 c 1.80265,8.2609 12.34838,43.5109 18.84765,63.0001 33.59653,100.7441 72.96492,170.9514 112.55575,200.7255 21.76093,16.365 43.28622,21.0466 65.13052,14.1661 13.4802,-4.246 28.6656,-16.3042 39.6587,-31.4926 25.0868,-34.6605 43.7336,-98.9958 53.1563,-183.399 3.6491,-32.6865 7.115,-93.0517 5.3835,-93.0465 z"
       id="path40"
       inkscape:export-xdpi="96"
       inkscape:export-ydpi="96" />
    <path
       style="fill:#ffffff;stroke-width:0.294792"
       d="m 3171.1371,1714.9156 v 42.0061 42.0055 l 172.2498,-0.2528 172.25,-0.2528 v -41.4999 -41.5001 l -172.25,-0.2527 z"
       id="path38"
       inkscape:export-xdpi="96"
       inkscape:export-ydpi="96" />
    <path
       style="fill:#ffffff;stroke-width:0.294792"
       d="m 2147.0267,1506.3729 c -3.6283,0 -7.2587,0.3155 -10.89,0.9609 -40.0103,7.1111 -69.6865,53.1397 -88.3857,137.088 -9.7992,43.9932 -16.8467,103.7764 -18.1539,153.9998 l -0.5205,19.9998 2.2455,-4.4996 c 1.2349,-2.475 7.0206,-14.1754 12.8574,-26.0004 12.8542,-26.0417 21.2609,-41.0059 33.4278,-59.5002 27.6937,-42.0963 54.0075,-66.3715 82.0299,-75.6756 5.988,-1.9884 9.0236,-2.3244 20.9998,-2.3244 11.9544,0 15.0226,0.3385 20.9999,2.3157 37.3902,12.3691 73.7346,51.0142 113.0301,120.1847 10.1002,17.779 10.7819,18.7568 9.3521,13.4147 -23.3341,-87.1827 -56.3908,-167.2008 -88.9907,-215.415 -29.0309,-42.9355 -58.457,-64.511 -88.0017,-64.5484 z"
       id="path36"
       inkscape:export-xdpi="96"
       inkscape:export-ydpi="96" />
    <path
       style="fill:#ffffff;stroke-width:0.294792"
       d="m 3424.609,522.27072 c -0.5345,-0.16414 -18.522,23.73883 -39.9719,53.11777 -21.45,29.37895 -39.2247,53.42775 -39.4997,53.44193 -0.2751,0.0141 -18.0505,-24.01264 -39.5004,-53.39358 -21.4499,-29.38095 -39.4375,-53.29562 -39.972,-53.14366 -2.8105,0.79912 -58.3611,42.30847 -58.0158,43.35162 0.2222,0.67269 20.898,29.16062 45.9461,63.30711 25.048,34.14648 45.5418,62.29021 45.5418,62.54132 0,0.25108 -20.5272,28.44966 -45.616,62.66339 -25.0888,34.21371 -45.7832,62.66965 -45.9869,63.23568 -0.329,0.91335 57.079,43.57974 58.5229,43.49501 0.3189,-0.0186 17.9183,-23.72277 39.1094,-52.67615 21.1914,-28.95337 39.0273,-52.80845 39.6357,-53.01127 0.6081,-0.20279 18.537,23.38889 39.8417,52.42629 21.3045,29.03736 39.3139,52.73994 40.0209,52.67214 1.3433,-0.12888 58.3879,-41.5044 58.4254,-42.37689 0.012,-0.27499 -20.4817,-28.39985 -45.5404,-62.49986 -25.059,-34.09999 -45.7882,-62.52846 -46.065,-63.17409 -0.2769,-0.64565 20.057,-29.20265 45.1865,-63.46024 25.1296,-34.25763 45.8407,-62.75435 46.0244,-63.32609 0.291,-0.90504 -55.5169,-42.40116 -58.0867,-43.19043 z"
       id="path34"
       inkscape:export-xdpi="96"
       inkscape:export-ydpi="96" />
    <path
       style="fill:#ffffff;stroke-width:0.294792"
       d="m 1925.1373,360.92121 v 349.00054 348.99995 h 222.9995 223.0001 V 709.92175 360.92121 h -223.0001 z"
       id="rect27"
       inkscape:export-xdpi="96"
       inkscape:export-ydpi="96" />
    <path
       sodipodi:type="star"
       style="fill:#ffffff"
       id="path64"
       sodipodi:sides="16"
       sodipodi:cx="12088.816"
       sodipodi:cy="7450.4053"
       sodipodi:r1="925.83295"
       sodipodi:r2="129.61661"
       sodipodi:arg1="1.1571071"
       sodipodi:arg2="1.3534566"
       inkscape:flatsided="false"
       inkscape:rounded="0"
       inkscape:randomized="0"
       d="m 12460.992,8298.1387 -344.226,-721.1661 -8.518,799.0617 -42.045,-798.0002 -313.657,734.9771 266.537,-753.346 -571.045,558.9991 534.541,-594.0018 -741.496,297.9184 721.166,-344.226 -799.062,-8.5177 798.001,-42.0451 -734.978,-313.6569 753.346,266.5368 -558.999,-571.0448 594.002,534.541 -297.918,-741.4963 344.226,721.1661 8.517,-799.0617 42.046,798.0002 313.657,-734.9772 -266.537,753.346 571.044,-558.999 -534.54,594.0017 741.496,-297.9184 -721.166,344.2261 799.061,8.5176 -798,42.0451 734.977,313.657 -753.346,-266.5369 558.999,571.0449 -594.001,-534.541 z"
       inkscape:transform-center-x="-10.518032"
       inkscape:transform-center-y="-8.5782035"
       transform="matrix(0.17517629,-0.00326952,0.00550108,0.29474036,1176.3851,706.04544)"
       inkscape:export-xdpi="96"
       inkscape:export-ydpi="96" />
    <path
       sodipodi:type="star"
       style="fill:#ffffff"
       id="path66"
       sodipodi:sides="5"
       sodipodi:cx="3966.4275"
       sodipodi:cy="2108.9954"
       sodipodi:r1="704.32324"
       sodipodi:r2="98.605255"
       sodipodi:arg1="0.76809885"
       sodipodi:arg2="1.3964174"
       inkscape:flatsided="false"
       inkscape:rounded="0"
       inkscape:randomized="0"
       d="m 4472.9999,2598.3374 -489.4647,-392.2322 -325.9602,535.8841 221.7821,-586.715 -610.3833,-144.4092 626.5336,29.6224 -51.2776,-625.134 165.437,605.0227 578.6921,-241.9448 -524.2879,344.3022 z"
       transform="matrix(0.2636493,0.06654806,-0.04164786,0.42127849,18.463036,-438.52811)"
       inkscape:export-xdpi="96"
       inkscape:export-ydpi="96" />
  </g>
</svg>
